<svg width="316" height="184" viewBox="0 0 316 184" fill="none" xmlns="http://www.w3.org/2000/svg">
<circle cx="92" cy="92" r="54" stroke="url(#paint0_linear_5676_1304)" stroke-width="2"/>
<circle cx="92" cy="92" r="37" fill="#CDE5FF"/>
<circle cx="92" cy="92" r="91" stroke="url(#paint1_linear_5676_1304)" stroke-width="2"/>
<path d="M19 92C19 51.6832 51.6832 19 92 19C132.317 19 165 51.6832 165 92C165 132.317 132.317 165 92 165C51.6832 165 19 132.317 19 92Z" stroke="url(#paint2_linear_5676_1304)" stroke-width="2"/>
<rect x="192" y="1" width="123" height="77" rx="11" fill="white"/>
<rect x="192" y="1" width="123" height="77" rx="11" stroke="#4686FF" stroke-width="2"/>
<path d="M241.236 11.9062C242.156 11.9004 242.93 12.2402 243.41 12.8086H246.076V11.5312H246.99V16.8867H246.076V15.6914H243.434C242.959 16.2832 242.174 16.6348 241.236 16.6289C239.666 16.6348 238.523 15.6738 238.529 14.2617C238.523 12.8613 239.666 11.9004 241.236 11.9062ZM239.408 14.2617C239.408 15.2051 240.17 15.8789 241.236 15.8906C242.268 15.8789 243.041 15.2051 243.041 14.2617C243.041 13.3242 242.268 12.6562 241.236 12.668C240.17 12.6562 239.408 13.3242 239.408 14.2617ZM240.24 18.1523V17.4141H246.99V19.9102H241.178V21.0703H247.389V21.8086H240.264V19.207H246.076V18.1523H240.24ZM243.82 13.5469C243.891 13.7695 243.932 14.0098 243.932 14.2617C243.932 14.5078 243.896 14.7363 243.826 14.9531H246.076V13.5469H243.82ZM256.881 11.543V14.2148H258.463V15H256.881V17.7539H255.967V11.543H256.881ZM249.182 12.8672V12.1055H253.904V14.9531H250.107V16.4297C251.959 16.4355 253.301 16.377 254.924 16.1133L255.018 16.8516C253.348 17.1445 251.953 17.2031 250.014 17.2031H249.205V14.2383H253.002V12.8672H249.182ZM250.283 21.8086V18.2695H256.881V21.8086H250.283ZM251.186 21.0586H255.99V18.9844H251.186V21.0586ZM267.697 11.5312V16.9336H266.795V11.5312H267.697ZM259.178 16.1016C260.748 15.5566 261.861 14.1621 261.861 12.6328V11.8359H262.799V12.6328C262.787 14.1035 263.912 15.4043 265.459 15.9141L265.002 16.6289C263.777 16.2129 262.811 15.3398 262.342 14.2148C261.873 15.4277 260.895 16.3828 259.658 16.8281L259.178 16.1016ZM260.936 18.1992V17.4609H267.709V19.957H261.861V21.082H268.084V21.832H260.959V19.2422H266.795V18.1992H260.936Z" fill="#201F1E"/>
<rect x="193" y="30" width="121" height="1" fill="#E1DFDD"/>
<path d="M170.233 37V36H169.917L169.658 36.1819L170.233 37ZM86.6667 92C86.6667 94.9455 89.0545 97.3333 92 97.3333C94.9455 97.3333 97.3333 94.9455 97.3333 92C97.3333 89.0545 94.9455 86.6667 92 86.6667C89.0545 86.6667 86.6667 89.0545 86.6667 92ZM192.5 36H170.233V38H192.5V36ZM169.658 36.1819L91.4249 91.1819L92.5751 92.8181L170.808 37.8181L169.658 36.1819Z" fill="#4686FF"/>
<defs>
<linearGradient id="paint0_linear_5676_1304" x1="92" y1="37" x2="92" y2="129.889" gradientUnits="userSpaceOnUse">
<stop stop-color="#AACEFF"/>
<stop offset="1" stop-color="#E9F3FF"/>
</linearGradient>
<linearGradient id="paint1_linear_5676_1304" x1="92" y1="0" x2="92" y2="184" gradientUnits="userSpaceOnUse">
<stop stop-color="#CDE5FF"/>
<stop offset="1" stop-color="#E9F3FF"/>
</linearGradient>
<linearGradient id="paint2_linear_5676_1304" x1="92" y1="166" x2="92" y2="18" gradientUnits="userSpaceOnUse">
<stop stop-color="#4686FF"/>
<stop offset="0.0001" stop-color="#AACEFF"/>
<stop offset="1" stop-color="#E9F3FF"/>
</linearGradient>
</defs>
</svg>
