<svg width="294" height="184" viewBox="0 0 294 184" fill="none" xmlns="http://www.w3.org/2000/svg">
<circle cx="92" cy="92" r="54" stroke="url(#paint0_linear_4991_17953)" stroke-width="2"/>
<circle cx="92" cy="92" r="37" fill="#CDE5FF"/>
<circle cx="92" cy="92" r="91" stroke="url(#paint1_linear_4991_17953)" stroke-width="2"/>
<path d="M19 92C19 51.6832 51.6832 19 92 19C132.317 19 165 51.6832 165 92C165 132.317 132.317 165 92 165C51.6832 165 19 132.317 19 92Z" stroke="url(#paint2_linear_4991_17953)" stroke-width="2"/>
<rect x="215" y="1" width="78" height="77" rx="11" fill="white"/>
<rect x="215" y="1" width="78" height="77" rx="11" stroke="#4686FF" stroke-width="2"/>
<path d="M241.733 11.9006C242.653 11.9006 243.424 12.2362 243.905 12.8039H246.581V11.5359H247.493V16.8812H246.581V15.6878H243.934C243.461 16.2804 242.674 16.6326 241.733 16.6326C240.167 16.6326 239.023 15.6713 239.032 14.2624C239.023 12.8619 240.167 11.9006 241.733 11.9006ZM239.91 14.2624C239.91 15.2072 240.673 15.8785 241.733 15.8867C242.769 15.8785 243.54 15.2072 243.54 14.2624C243.54 13.326 242.769 12.6547 241.733 12.663C240.673 12.6547 239.91 13.326 239.91 14.2624ZM240.739 18.1492V17.4199H247.493V19.9061H241.675V21.0663H247.891V21.8122H240.764V19.2099H246.581V18.1492H240.739ZM244.315 13.5414C244.385 13.7652 244.427 14.0055 244.427 14.2624C244.427 14.511 244.389 14.7431 244.323 14.9586H246.581V13.5414H244.315ZM257.384 11.5442V14.2127H258.958V15H257.384V17.7514H256.464V11.5442H257.384ZM249.676 12.8619V12.1077H254.4V14.9503H250.613V16.4254C252.461 16.4337 253.799 16.3798 255.428 16.1105L255.519 16.8564C253.845 17.1464 252.453 17.2044 250.513 17.2044H249.701V14.2376H253.497V12.8619H249.676ZM250.787 21.8122V18.2652H257.384V21.8122H250.787ZM251.682 21.058H256.488V18.9862H251.682V21.058ZM268.194 11.5359V16.9392H267.291V11.5359H268.194ZM259.683 16.1022C261.249 15.5552 262.36 14.163 262.36 12.6381V11.8343H263.296V12.6381C263.288 14.105 264.415 15.4061 265.965 15.9116L265.5 16.6326C264.278 16.2141 263.308 15.3398 262.84 14.2127C262.376 15.4268 261.398 16.384 260.163 16.8315L259.683 16.1022ZM261.431 18.1989V17.4613H268.21V19.9558H262.36V21.0829H268.583V21.837H261.465V19.2431H267.299V18.1989H261.431Z" fill="#201F1E"/>
<rect x="216" y="30" width="76" height="1" fill="#E1DFDD"/>
<path d="M170.233 37V36H169.917L169.658 36.1819L170.233 37ZM86.6667 92C86.6667 94.9455 89.0545 97.3333 92 97.3333C94.9455 97.3333 97.3333 94.9455 97.3333 92C97.3333 89.0545 94.9455 86.6667 92 86.6667C89.0545 86.6667 86.6667 89.0545 86.6667 92ZM214 36H170.233V38H214V36ZM169.658 36.1819L91.4249 91.1819L92.5751 92.8181L170.808 37.8181L169.658 36.1819Z" fill="#4686FF"/>
<defs>
<linearGradient id="paint0_linear_4991_17953" x1="92" y1="37" x2="92" y2="129.889" gradientUnits="userSpaceOnUse">
<stop stop-color="#AACEFF"/>
<stop offset="1" stop-color="#E9F3FF"/>
</linearGradient>
<linearGradient id="paint1_linear_4991_17953" x1="92" y1="0" x2="92" y2="184" gradientUnits="userSpaceOnUse">
<stop stop-color="#CDE5FF"/>
<stop offset="1" stop-color="#E9F3FF"/>
</linearGradient>
<linearGradient id="paint2_linear_4991_17953" x1="92" y1="166" x2="92" y2="18" gradientUnits="userSpaceOnUse">
<stop stop-color="#4686FF"/>
<stop offset="0.0001" stop-color="#AACEFF"/>
<stop offset="1" stop-color="#E9F3FF"/>
</linearGradient>
</defs>
</svg>
