<svg width="20" height="20" viewBox="0 0 20 20" fill="none" xmlns="http://www.w3.org/2000/svg">
<path d="M14.1665 8.33333C15.0832 8.33333 15.8332 7.58333 15.8332 6.66667V4.16667C15.8332 3.25 15.0832 2.5 14.1665 2.5H5.83317C4.9165 2.5 4.1665 3.25 4.1665 4.16667V6.66667C4.1665 7.58333 4.9165 8.33333 5.83317 8.33333H6.6665V10H5.83317C4.9165 10 4.1665 10.75 4.1665 11.6667V17.5H5.83317V15H14.1665V17.5H15.8332V11.6667C15.8332 10.75 15.0832 10 14.1665 10H13.3332V8.33333H14.1665ZM5.83317 6.66667V4.16667H14.1665V6.66667H5.83317ZM14.1665 13.3333H5.83317V11.6667H14.1665V13.3333ZM11.6665 10H8.33317V8.33333H11.6665V10Z" fill="#A19F9D"/>
</svg>
